<?xml version="1.0" standalone="no"?>
<!DOCTYPE svg PUBLIC "-//W3C//DTD SVG 20010904//EN"
 "http://www.w3.org/TR/2001/REC-SVG-20010904/DTD/svg10.dtd">
<svg version="1.0" xmlns="http://www.w3.org/2000/svg"
 width="549.000000pt" height="455.000000pt" viewBox="0 0 549.000000 455.000000"
 preserveAspectRatio="xMidYMid meet">

<g transform="translate(0.000000,455.000000) scale(0.100000,-0.100000)"
fill="#000000" stroke="none">
<path d="M630 3315 c0 -283 4 -515 9 -515 4 0 42 69 84 153 116 234 246 436
381 590 34 38 68 81 76 95 9 14 24 30 35 36 29 16 183 135 190 146 4 7 -131
10 -384 10 l-391 0 0 -515z" fill="rgb(246, 102, 102)"/>
<path d="M1835 3818 c-3 -7 -4 -719 -3 -1583 l3 -1570 370 0 370 0 0 1580 0
1580 -368 3 c-289 2 -369 0 -372 -10z" fill="rgb(246, 102, 102)"/>
<path d="M3260 3826 c0 -3 32 -26 71 -52 278 -185 426 -535 388 -916 -32 -323
-154 -558 -373 -720 -45 -33 -82 -63 -83 -67 -1 -3 23 -22 53 -41 75 -47 123
-95 178 -179 88 -132 120 -236 142 -460 17 -183 26 -223 69 -316 77 -168 223
-291 428 -361 122 -41 257 -55 516 -52 l235 3 -80 63 c-179 142 -262 322 -284
622 -16 201 -48 332 -116 460 -66 125 -169 217 -287 256 -75 24 -75 24 -11 56
147 73 257 194 339 370 80 174 120 405 97 564 -49 336 -249 601 -535 709 -144
54 -230 65 -499 65 -136 0 -248 -2 -248 -4z" fill="rgb(246, 102, 102)"/>
</g>
</svg>
