<?xml version="1.0" encoding="UTF-8"?>
<svg xmlns="http://www.w3.org/2000/svg" xmlns:xlink="http://www.w3.org/1999/xlink" width="33px" height="33px" viewBox="0 0 30 30" version="1.1">
<g id="surface1">
<path style=" stroke:none;fill-rule:evenodd;fill:rgb(5.490196%,5.490196%,5.490196%);fill-opacity:1;" d="M 12.507812 0.164062 C 11.550781 0.324219 9.445312 0.972656 8.550781 1.382812 C 7.308594 1.953125 5.484375 3.265625 4.386719 4.375 C 2.421875 6.359375 1.332031 8.25 0.429688 11.25 C -0.0117188 12.707031 -0.121094 16.042969 0.21875 17.707031 C 0.898438 21.066406 2.335938 23.679688 4.761719 25.96875 C 6.101562 27.230469 6.855469 27.746094 8.582031 28.578125 C 10.886719 29.6875 11.933594 29.902344 15 29.902344 C 18.074219 29.902344 19.113281 29.6875 21.441406 28.566406 C 25.710938 26.511719 28.796875 22.585938 29.695312 18.074219 C 29.796875 17.578125 29.9375 17.058594 30.011719 16.914062 C 30.179688 16.597656 30.199219 12.851562 30.03125 12.957031 C 29.96875 12.996094 29.832031 12.59375 29.730469 12.0625 C 29.367188 10.152344 28.507812 8.125 27.316406 6.375 C 26.03125 4.492188 23.472656 2.3125 21.449219 1.382812 C 20.484375 0.941406 18.46875 0.335938 17.367188 0.15625 C 16.261719 -0.0234375 13.601562 -0.0195312 12.507812 0.164062 M 12.644531 9.335938 C 7.886719 14.105469 7.753906 14.289062 7.75 16.125 C 7.742188 17.800781 8.066406 18.347656 10.46875 20.734375 C 13 23.246094 13.390625 23.476562 15.226562 23.476562 C 16.90625 23.476562 17.371094 23.230469 19.179688 21.402344 C 20.152344 20.417969 20.4375 20.035156 20.4375 19.710938 C 20.4375 19.230469 19.808594 18.601562 19.328125 18.601562 C 19.148438 18.601562 18.457031 19.148438 17.636719 19.9375 C 16.5625 20.976562 16.125 21.300781 15.6875 21.382812 C 14.621094 21.582031 14.164062 21.304688 12.046875 19.167969 C 10.453125 17.554688 10.058594 17.070312 9.972656 16.625 C 9.765625 15.515625 9.953125 15.207031 12.140625 13.011719 L 14.199219 10.949219 L 15.101562 10.949219 C 16.152344 10.949219 16.582031 11.210938 18.070312 12.734375 C 18.726562 13.402344 19.074219 13.648438 19.367188 13.648438 C 19.964844 13.648438 20.449219 13.1875 20.449219 12.613281 C 20.449219 12.207031 20.242188 11.921875 19.132812 10.808594 C 18.316406 9.988281 17.535156 9.355469 17.078125 9.140625 L 16.339844 8.792969 L 17.394531 7.730469 C 18.582031 6.535156 18.738281 6.023438 18.101562 5.425781 C 17.316406 4.6875 17.226562 4.75 12.644531 9.335938 M 0.0585938 15 C 0.0585938 16.113281 0.0820312 16.570312 0.109375 16.011719 C 0.140625 15.457031 0.140625 14.542969 0.109375 13.988281 C 0.0820312 13.429688 0.0585938 13.886719 0.0585938 15 M 14.011719 15.265625 C 13.785156 15.414062 13.5 15.976562 13.5 16.273438 C 13.5 16.40625 13.664062 16.679688 13.867188 16.882812 L 14.238281 17.25 L 18.441406 17.25 C 22.449219 17.25 22.664062 17.234375 22.949219 16.949219 C 23.332031 16.566406 23.347656 15.734375 22.976562 15.398438 C 22.734375 15.179688 22.195312 15.148438 18.4375 15.152344 C 16.09375 15.152344 14.101562 15.203125 14.011719 15.265625 "/>
</g>
</svg>
